<svg width="256" height="256" viewBox="0 0 256 256" fill="none" xmlns="http://www.w3.org/2000/svg">
<path d="M121.706 165.303C123.182 168.348 126.281 170.282 129.678 170.276C133.074 170.27 136.166 168.327 137.632 165.277L156.673 125.646L164.613 138.065C166.234 140.602 169.045 142.138 172.065 142.138H209.581L137.675 222.226C132.509 227.979 123.494 227.979 118.328 222.226L48.5301 144.483H76.0704C79.3803 144.483 82.4128 142.641 83.9266 139.711L97.0187 114.37L121.706 165.303Z" fill="url(#paint0_linear_20_90)"/>
<path d="M182.666 29C210.065 29 232.957 48.1997 238.507 73.8196C242.416 90.678 238.858 109.412 225.368 124.552H176.914L163.028 102.831C161.304 100.135 158.247 98.582 155.043 98.7747C151.938 98.9613 149.169 100.758 147.74 103.491L147.607 103.757L129.627 141.175L105.228 90.8345C103.772 87.8309 100.735 85.9058 97.3845 85.8632C94.0343 85.8207 90.9479 87.6684 89.4156 90.6342L70.6804 126.897H32.7407L30.7945 124.729C20.5241 113.29 15.9507 99.7788 16.0035 86.5685C16.0006 86.3334 16 86.0979 16 85.8621C16 54.458 41.5761 29 73.1258 29C99.0211 29 120.888 46.1516 127.896 69.6635C134.904 46.1516 156.771 29 182.666 29Z" fill="url(#paint1_linear_20_90)"/>
<defs>
<linearGradient id="paint0_linear_20_90" x1="128" y1="29" x2="128" y2="233" gradientUnits="userSpaceOnUse">
<stop stop-color="#E30A0E"/>
<stop offset="1" stop-color="#7D0508"/>
</linearGradient>
<linearGradient id="paint1_linear_20_90" x1="128" y1="29" x2="128" y2="233" gradientUnits="userSpaceOnUse">
<stop stop-color="#E30A0E"/>
<stop offset="1" stop-color="#7D0508"/>
</linearGradient>
</defs>
</svg>
